/* XPM */
static char *_21eb0a5ea224bbe900947ab35fb6c1em3uNAWbvTjiuqQrp[] = {
/* columns rows colors chars-per-pixel */
"64 64 150 2 ",
"   c #2F271B",
".  c #33291C",
"X  c #392F22",
"o  c #3E3424",
"O  c #413726",
"+  c #433827",
"@  c #453A29",
"#  c #4A3E2C",
"$  c #4D412F",
"%  c #4F4432",
"&  c #524532",
"*  c #564935",
"=  c #5A4C37",
"-  c #54493A",
";  c #5C4E39",
":  c #5E503A",
">  c #63543D",
",  c #655741",
"<  c #675842",
"1  c #6C5C43",
"2  c #6D5F4A",
"3  c #705F46",
"4  c #6E614D",
"5  c #716146",
"6  c #75644A",
"7  c #79674B",
"8  c #7C6A4E",
"9  c #6B6151",
"0  c #726552",
"q  c #776852",
"w  c #7D6C52",
"e  c #756958",
"r  c #7B6E59",
"t  c #7F715C",
"y  c #7E7464",
"u  c #816E52",
"i  c #857255",
"p  c #887557",
"a  c #84745A",
"s  c #897659",
"d  c #8D7A5D",
"f  c #837663",
"g  c #877862",
"h  c #8E7D62",
"j  c #857A69",
"k  c #8B7D68",
"l  c #907E62",
"z  c #8D806D",
"x  c #938166",
"c  c #96856A",
"v  c #98876D",
"b  c #97886F",
"n  c #99886E",
"m  c #8C8170",
"M  c #948671",
"N  c #978A76",
"B  c #9C8C73",
"V  c #918778",
"C  c #90887B",
"Z  c #9C8E79",
"A  c #9F9077",
"S  c #9F9079",
"D  c #A08F78",
"F  c #A2937C",
"G  c #9D9484",
"H  c #A59781",
"J  c #A69983",
"K  c #A99B86",
"L  c #A59B8A",
"P  c #AB9E89",
"I  c #A69E91",
"U  c #AEA18D",
"Y  c #AEA390",
"T  c #B1A593",
"R  c #B4A896",
"E  c #B6AB9A",
"W  c #B8AE9D",
"Q  c #BAB09F",
"!  c #B6AFA2",
"~  c #B9AFA0",
"^  c #BBB1A2",
"/  c #BBB1A1",
"(  c #BDB3A4",
")  c #BDB5A5",
"_  c #BEB5A6",
"`  c #BEB6A7",
"'  c #BCB3A4",
"]  c #BEB6A8",
"[  c #BEB6A8",
"{  c #BFB9B1",
"}  c #C0B7A7",
"|  c #C0B7A7",
" . c #C0B7A9",
".. c #C1B8A9",
"X. c #C2B8AA",
"o. c #C2BAAD",
"O. c #C3BBAE",
"+. c #C4BBAE",
"@. c #C5BDAF",
"#. c #C4BDAF",
"$. c #C2BAAC",
"%. c #C5BDB0",
"&. c #C5BEB1",
"*. c #C5BFB1",
"=. c #C6BFB2",
"-. c #C6BEB2",
";. c #C6C0B2",
":. c #C7C1B3",
">. c #C7C0B3",
",. c #CAC2B6",
"<. c #C9C2B6",
"1. c #CAC2B8",
"2. c #CBC3B8",
"3. c #CBC4B9",
"4. c #CCC5B9",
"5. c #CCC5BA",
"6. c #CDC6BB",
"7. c #CDC7BD",
"8. c #CDC7BC",
"9. c #CCC5BA",
"0. c #CEC8BE",
"q. c #CEC8BE",
"w. c #CEC9C0",
"e. c #D0CBC1",
"r. c #D0CAC1",
"t. c #D2CDC4",
"y. c #D3CEC5",
"u. c #D2CCC3",
"i. c #D6D1CA",
"p. c #D6D2CB",
"a. c #D7D3CC",
"s. c #D5D1CA",
"d. c #D9D6CE",
"f. c #D8D4CD",
"g. c #DAD7D0",
"h. c #DAD7D0",
"j. c #DBD8D1",
"k. c #DCD8D2",
"l. c #DDDAD6",
"z. c #DDD9D4",
"x. c #E0DCD7",
"c. c #E0DCD7",
"v. c #E1DFDA",
"b. c #E4E2DE",
"n. c #E3E0DC",
"m. c #E5E4E1",
"M. c #E6E4E1",
"N. c #E8E8E5",
"B. c #EDEEED",
"V. c #ECECEA",
/* pixels */
"+ $ * ; < 5 6 1 5 5 u u 7 s x 6 d x i 6 d p i 6 6 5 6 u d l d c i i p l 8 1 > s i 8 8 7 i < 8 1 u d x 6 7 8 p 6 u i 5 : $ ; & + ",
"* 1 d c J F K K P F F K F U n B U R Y K F R T K P T U F ~ &.e.8.:.o.^ ) } J 1 H ) E T K R W o.6.) E X.B E R T K K Y T J x 8 1 ; ",
", i E #.3.8.^ o.1.T ^ 0.#.^ U U 0.a.k.E o.k.B.k.6.p.X.8.e.:.d.&.8.3.1.&.6.U 6 +.#.0.:.U o.^ F ( &.y.8.B U <.X.1.p.b.m.1.l.x.F 8 ",
"7 E ) l W Q T i d J R l F F 3 x n 7 l < c F T W B c B P l B P T c 7 < 1 i < 1 x d d 8 < B F = , B ) H u 6 7 E n W R F F v o.E l ",
"u E g.T B 1 ) K i S B u x s 5 s c d l 3 u 5 x J S B P x 6 i c B B s J T R 7 b u 8 5 5 ; # l 8 l d x d 6 x P B , # F 8 u F U ^ c ",
"v U W E &.K T J 6 > i 6 l d i u R 6 > 7 6 < 3 i F B B 1 > w [ U y.e.E F 1 = Z i i i 6 c 5 > s x s p = & c F i d B 3 = ; , F F l ",
"6 K 6.B ) T U F 5 < u s w 7 * < 6 = s M < * > > w c < > G ) ^ x n K H P x $ g n d H c B c u x l 5 * $ # J F B F h x p u 1 v F 7 ",
"> B w.^ >.<.l h B K 5 > * + & $ + c J x E S F S w > r p.) J x J c p B H K w g U B U K d c B F h 8 6 & G E l l i 8 K B d B E F > ",
"B K X.' y.( F T B h B i $ & z U T F F n c U F u c H T E F J B l K B H c A 5 0 U P l d S T W i i x > C n.F d F 8 h B J v v U F s ",
"x B N.E E U P T E P P a o f J x R l c U c n d u s h s Z U s d B H x E n 6 & j K d c 5 B 6 > @ O ; * E R U F l n B B B T 8 F F i ",
"5 F E x : T F E  .) F > , J s 6 x x l c B 1 x x x 7 s x x x h x F c F E B 1 i x i 5 6 & O o I 6 X ; <.P c K c c B x p l v J B 7 ",
"6 n k.H d c x x B B 1 @ G Y T n d s K i 7 c J K s B h H A K B x u x n T W H p > # , 0 : + y J 6 0 T F n x c B F B i i h l R J 6 ",
"5 i ) B 7 5 5 w B 5 ; 9 l.6.T l B P K F F x < p c u v x l v x x i d x x K B i c E 0.R U K E w @ m 6 s l x x J B B c u R F n F 6 ",
"< x 6 6 ; : : * 6 u * s.u.R B F B T H B n 1 d B w B F c n B d i c d d x H H B x B x l l B i + % K 5 U P i F B c c F 6 d i n x 5 ",
"p > E T [ 0.6.) g & O c F U P P n 6 h F 7 8 c B i x P K T K F F F x F l l B J J a K d d S = - 7.F x d l B x 6 x ^ E B w 6 8 p 8 ",
"> e 0.d H U :.&.R c r 4 K U H F P B d l s x 7 F p d F J F W F F c c 7 s B F F c c B B c d & V R P B i 7 p B d F c n K c 1 7 s 7 ",
"h R &.d s U B U F 6 v i 6 B s B d F S B T X.J F J v T S F U B F T B d d B F l i d 7 x s u * , c B d B H x F i c c P F F c B u 1 ",
"; u ^ x l P U B F v h F Z n n U J U P h v ) &.X.F F B B B B F l x x K B B d B d n n x 1 B i = U E c d 7 7 s n F F R n B K U 8 $ ",
"6 F ^ s x B E T ) B 8 x X.#.a F F E ) E n F E E E P H S c K U K d v F v P B F x c c s d u s ; f W U U B 8 x F U F x B B 8 U x < ",
"u d J 5 B H K F Y H F B P F w Z F w U F B n c d d B F P H B K T B x x c J F x H B B x B u = % w P h H B x F F B B F x U ) 6.J 8 ",
"d ^ E n 1 i F K x s B B ^ U d 1 Y B 7 v B J F 8 7 B B s x B l c K B B n H c n c c h d a : # * 6 w F i B F P U c B R &.F F X.c 5 ",
"< F &.J B d F ' X.B B c B c 3 < w l B n P d B B c v d B 7 l F D B B 5 ; > d v F i * ; : > I P a < X.U F i s F d F E F K x ) x 1 ",
"x x  .c B 5 x H T J h H 7 < > < , s d x U T T ^ n B F U F 7 x v c c K B d s 3 7 = * E W ) ) F 1 > g i s x l F B H J n F B x B u ",
"K T K l 1 d c l B w 6 u ; 1 w 6 : g F i c B P Y F B d B U B p u c c s H B 7 < 1 g Y e.c x F B x 6 * & 1 d 1 1 s 7 u p 6 i x l 7 ",
"s a J x > * ; : d * 9 y N &.k.) d 7 i 5 < 5 i c K T U c B P F H F P s B n F l 1 U X.F R F B J s x F c # > & $ * > 1 < w B h 1 6 ",
"> r < # y Z f 2 = = [ o.E ) P B B H F Z w B d F s l c F H n 6 B B x c F U B w 8 [ W B i H K U F B F E Y x l.U P &.T T c d J h < ",
"8 ) g.p P Y B F S L g.n c x P F i l B B 7 6 1 J c > i T E F n 3 F K n E n 1 < 6  .U P E l K ( X.F F T h B m.8.K U P F 7 i J > : ",
"8 P :.l F x l 7 T E ^ F l n F F B 7 8 1 1 = = 7 A i B c x v F K F d * < 5 & M T F U B F Y P l B ^ B s 6 x Y n B B H P n i R F > ",
"8 H o.' :.U l v B c F X.U J s w B d 7 l 6 s > 5 1 c l s 7 ; x B d i d 6 & w 6 i s x T 7 n U T v T l 6 : v F d n 7 < u n F E c , ",
", d B E E T &.l.<.) [ E ^ W W 8.w.c d K R F 6 G ) X.R 8.W ^ 3.~ T T E 1 q F F R K ) P P ) E E K J 6 u P  .#.) F s 8 J P P c * & ",
"$ : i u n i F U P d l F F s l l x s p P F 6 > : c F i l H v s l F i : : u u 5 7 6 s v A Y F B B s h c c n c x v x d d 6 , ; $ O ",
"O O O > 1 > = 1 6 $ 1 7 & = * & 1 1 ; > 5 * * # + : 5 , 6 8 , = * + . $ + # & ; # $ : > u u 7 = > 3 < = * = ; = , > & O + X   . ",
"; 6 6 l 8 1 5 n < * 8 8 p < 3 < 8 d x i 8 8 p 6 u i 5 : $ ; & + + $ * ; < 5 6 1 5 5 u u 7 u x i d x i 6 d p i 6 = 7 6 u d d 7 1 ",
"o.O.^ ) ) T R R E x q 6 i B W 1.) E X.) #.R T K K Y T J x 8 1 ; * 1 d c J F K K P F F K F K K P U R Y K F T U B , N U F Y x c Y ",
"8.6.y.e.u.8.w.) O.T 6 a E ( K  .<.y.0.^ ( <.X.1.p.n.M.1.l.x.F 8 , i E #.6.0.^ o.<.Y W 6.o.^ e.1.8.p.g.E o.k.V.y.K , L T s y n.<.",
"U T B c i B ' c s J < p E U n n F B l v E F #.<.E F F u F v c 5 7 U v.) F W ) F d v W l ^ J K E d 7 i U F R K F v < * 1 w P F v ",
"U K B H s 1 d s d x 8 P B U d B J x T T ^ X.X.B F P F p s u s 1 i B J d l x v 5 d K c B F B F R B B x J c B B x 6 = B S c <.F B ",
"c s K E K x 6 8 5 s d #.H T P X.R e.) T H K J U s 7 s v c K x 6 5 B T 8 c s < J K J n s s 8 H F v B d B U s s 7 1 E o.l c c S H ",
"B B J s F U x < 7 d 7 E K H Y T p.O.U T E F B Y U H i i i T d 1 8 n X.i h U Y 8 i p J F i F U U K F B c p > & + ] X.P J c i l F ",
"c d x n E U P B d s 8 H K x Y B n K n B E F c U W ^ J c 6 K c 7 s F #.x x F T F 3 h F K x E T ) T d c w & * 0 Y W c v c i s d B ",
"x v B H R B K Q c 6 > u H l c R F x x x B J i c d A E n d B x 1 i J E i c i u n i u d u i K W T ^ H c w 8 E P E v F W B l i 8 i ",
"F F J B v K B x B > < c i l B B U T T 7 x B P R H T F S F x c 6 6 x U s d c K i c B s F B B E ^ T ) 6 * r p.B F c F P U T T x u ",
"B K B F n x Q B 7 > G B i 6 c h n T U U B x H B x w 7 6 8 d i < 1 B E v 6 B B d F H J B F c P J ^ X.7 ; w.F F l c 6 F H n K c S ",
"[ P c v ) U 1 : t P v.T s s > > c T x S c 6 1 6 i w g < > i s > , c U d B T H H H B F F B P F B x P * 4 v.T U d 5 d K T i c P T ",
"U U F T n : ; f v.U n H B H x d < W P n g w T 6.&.T E B s h u 6 u K v B F s n s F T F ' W F n B n d h d.<.W F P K w J 3.X.[ P c ",
"U E T T < & { #.F E F i B c s > w 3 F d w B 1.R J P E U F T i 5 : c F i i x d p x d T ^ d v c U o.F x &.( O.J T H B s U E H J K ",
"x F K a * C 3.T F F W B d s 6 F U U E S J 3.x c B F J F J F i 7 < B <.F i d l d d S p h F s B E x > d B J X.h S W E P F J F K ' ",
"u B p o = ' x F x J B P ^ 6.T T J U T E ! U J l 6 d h i S B A < 7 B B F c w < > = > : = 6 = u d x s F U B X.l H K P B K W P F P ",
"W i 1 , ^ H < l F T P E d F U F R ^ U T J F F B c B B d u } P i 8 x c i 6 * L g G ) 6.L e 4 $ ; * > 5 < = a c s d l h c B X.U T ",
"P 5 6 T ^ F l w 5 s U T P h F S F o.P u s B B B F c n B B U c 8 7 6 h ; < r [ K h x B x K F J P W h h S ^ a < 6 : 5 1 x T W T E ",
"> 7 h d a P B B E E J U U J F h B F B c i i i x c n B ( Y H l u 7 5 ; g c F c Y B F U U F P B 7 n n x F E s c Y H ! e.B c s x : ",
"H X.U > 1 6 F W T K F U E K F F U K F K c w > u l c x P R ) i 8 k g =.&.S d c P F K P c F l d S F B d d B B B F F c J P T ; ; s ",
") E F U U a L P S W F x u c d K B d c n l d l d 8 x B n U H i i P T <.d s c u x x 6 B c x x n B x K 7 s E T T E F x F F B T F E ",
"s x B U E 6 s l d n d i B u l F B c F B i B B c x F F x p A d p x F K 6 x E B d n h c F H E F B i B F n P E B J B B w F H K c c ",
"F U U J F B F d t > > 7 c d i H P T R U J U H R K i 7 8 > x d B l A U F B B F d x U T B v h P F d U P K B ^ F J v w c i v c n l ",
"B F W B p l d d F g w i u p 7 x J B U S n s n i u i d 7 s H i d i v T B J s c l w F s i n x x B F B l s d W B S l l K B B i s B ",
"x l c x i 1 5 c c p 0 W s B s F x l B B v B F B i F J U x P u 6 u x J x d l B l : u T F < B B F T F F F c u B B T F B B B h s U ",
"l B U s 8 s c J i 1 & 8.U F l c d c d B l x x F K J x c n P s 1 u d B A F n n J c w B B v i U W F n K T B d d B J B d F F c l F ",
"F P &.W d h J F J 1 = 6.P P K F B n n K U c l H F U T l x J d & > u 8 v P B H R R d i s B B H B x h P E F F B T X.E U x P F n l ",
"B F U U P B < c B : k U i i s B F P B F T T l B c J U l s T i ; 5 x ) B B F K F F F n x 7 F B d ; d 6 P c F W o.K U  .U x d J Y ",
"x T T K c K J u 7 7 a K i ; x v 8 8 c x h K F F n J c c 8 F > : 7 c :.B l l P v l d v i w v c P B i c s p s v B u J T U B B X.J ",
"T R #.T J v B T F i F U ) E W P T F d } ) W ' F s 8 J P K c * & , d B E W Y #.l.1.) X.) o.) ) y.p.c d K E T E ) ) o.R 8.W ' 6.~ ",
"F d u d i u 5 7 5 < B A Y F B F K U c l x c x v x d d 6 , ; $ O $ : i u n i F T P d l H F p l l x s p P F 6 d x B K i l H v s l ",
"1 > $ ; # # & * # + * > 7 6 5 > > < < = * = ; = , > & O + X   . O O O > 1 > = 1 6 $ < 7 & = * & 1 1 ; > 5 * = = = = 5 , 6 8 < : "
};
