/* XPM */
static char *_84f942dd41e4bc2e0cb96388acaa61aHLSAHeGflnlCxXij[] = {
/* columns rows colors chars-per-pixel */
"64 64 200 2 ",
"   c #17190C",
".  c #221C15",
"X  c #1B240D",
"o  c #1C2513",
"O  c #23280E",
"+  c #29320B",
"@  c #282919",
"#  c #2C3419",
"$  c #35381B",
"%  c #2C2C22",
"&  c #332D21",
"*  c #2D3322",
"=  c #373925",
"-  c #3B3B31",
";  c #433C1C",
":  c #423B24",
">  c #423C2B",
",  c #493C2B",
"<  c #443D32",
"1  c #503F31",
"2  c #3C470F",
"3  c #2E4219",
"4  c #3A441B",
"5  c #3D521F",
"6  c #3B4426",
"7  c #3C5126",
"8  c #3D4432",
"9  c #44481B",
"0  c #514B1F",
"q  c #47541C",
"w  c #535A1D",
"e  c #4A6419",
"r  c #53631B",
"t  c #63701F",
"y  c #454829",
"u  c #534A2A",
"i  c #4A5429",
"p  c #54582A",
"a  c #484934",
"s  c #554A36",
"d  c #4B5534",
"f  c #565837",
"g  c #63592B",
"h  c #624C37",
"j  c #635A3A",
"k  c #755B3C",
"l  c #4C6228",
"z  c #58652A",
"x  c #4E7129",
"c  c #5B7329",
"v  c #4C6235",
"b  c #5A6537",
"n  c #5C7337",
"m  c #63682C",
"M  c #70682A",
"N  c #65762B",
"B  c #707A2E",
"V  c #646839",
"C  c #73693B",
"Z  c #687539",
"A  c #73793B",
"S  c #4C4C42",
"D  c #564C41",
"F  c #4C5543",
"G  c #595943",
"H  c #5D5E51",
"J  c #674E42",
"K  c #675B45",
"L  c #735B47",
"P  c #675C52",
"I  c #5B6544",
"U  c #5D7343",
"Y  c #5D6651",
"T  c #676846",
"R  c #74684A",
"E  c #6A7546",
"W  c #757848",
"Q  c #6A6953",
"!  c #776A54",
"~  c #6C7553",
"^  c #797656",
"/  c #6D6D60",
"(  c #6B7563",
")  c #7B7663",
"_  c #85773E",
"`  c #805E56",
"'  c #826A4B",
"]  c #83784A",
"[  c #826D54",
"{  c #857759",
"}  c #927B5A",
"|  c #836D62",
" . c #887A64",
".. c #917D63",
"X. c #8A7D70",
"o. c #957975",
"O. c #68822C",
"+. c #72892D",
"@. c #6B8339",
"#. c #76863A",
"$. c #7A923A",
"%. c #5F8048",
"&. c #6C8345",
"*. c #788548",
"=. c #6F9043",
"-. c #7A9348",
";. c #6C8254",
":. c #7A8655",
">. c #7C9355",
",. c #78A043",
"<. c #7DA154",
"1. c #7C8563",
"2. c #7C9262",
"3. c #838A3A",
"4. c #83953D",
"5. c #83894A",
"6. c #90894C",
"7. c #86964A",
"8. c #929B4B",
"9. c #858857",
"0. c #94875B",
"q. c #889557",
"w. c #939959",
"e. c #88A34A",
"r. c #93A64B",
"t. c #8FB048",
"y. c #97B24E",
"u. c #8BA357",
"i. c #96A659",
"p. c #8DB05A",
"a. c #99B459",
"s. c #A2A95B",
"d. c #A2B65A",
"f. c #8A8567",
"g. c #91826A",
"h. c #8A9664",
"j. c #959866",
"k. c #8C8472",
"l. c #988A74",
"z. c #8B9573",
"x. c #9B9378",
"c. c #A18C6A",
"v. c #A3936B",
"b. c #A08D74",
"n. c #A3957A",
"m. c #B09D7C",
"M. c #8CA364",
"N. c #98A667",
"B. c #9BB466",
"V. c #8DA276",
"C. c #9AA674",
"Z. c #9CB474",
"A. c #A2AA69",
"S. c #A5B669",
"D. c #B2BA6C",
"F. c #A4A876",
"G. c #A8B676",
"H. c #B3BA78",
"J. c #AAC75E",
"K. c #9DC26C",
"L. c #A9C269",
"P. c #B5C56B",
"I. c #ACC276",
"U. c #B6C677",
"Y. c #B9D277",
"T. c #C1CD7C",
"R. c #C7D87A",
"E. c #8D8D83",
"W. c #978E80",
"Q. c #9C9483",
"!. c #A69A84",
"~. c #B09D82",
"^. c #A69E90",
"/. c #9BA584",
"(. c #ABA389",
"). c #B3A489",
"_. c #A9B684",
"`. c #B4B986",
"'. c #ACA492",
"]. c #B4A995",
"[. c #ACB495",
"{. c #B9B399",
"}. c #B8AEA0",
"|. c #BBB4A4",
" X c #C1B59B",
".X c #C1BAA9",
"XX c #C4BEB1",
"oX c #ADC283",
"OX c #B7C586",
"+X c #BCD483",
"@X c #BBC895",
"#X c #C1CA87",
"$X c #C4CB97",
"%X c #C4C5A9",
"&X c #C9C4B8",
"*X c #D2D2BD",
"=X c #CECAC1",
"-X c #D2CDC4",
";X c #D6D2CA",
":X c #E2E1DD",
/* pixels */
"*.w.i = p E A w.*.q.y z 4 p V z W d 6 w b :.d z.I b Z Z Z N N @.+.+.N t B t N +.+.$.#.#.3.*.A 3.A.7.q.z 0 g g N +.N Z $.O.*.*.-.",
"V Z E i :.b V V *.W f f n 5.*.u.p.i 6 ^ { Q ~  .^ E b W h./.%XXX.X.X}.}.|.(.!.n._.F.j.w.C.C.j.j.7.S.S.9.}.'.(.n.!.(.!.-.#.O.N #.",
"b A V d = d p b :.W :.;.>.>.u.N.9.I F f.f./.x.!._.OXG._.&XXX;XXX=X&X-X-X-X=X=X|..X&XXX(. X#XM.N.a.Y.Y.B.].&X.X&X;X:X:XXX$X$Xw.4.",
"N.*.z f Q ^ f.{ } n.j.W E b i 6 s y f ) o.x.(.j.N.#.q.i.w.b.(.}.!.} ..n.].g.{ { 5.A 5.#.P.R.G.r.t.J.J.+X#.R ].g.].].n.w.i.N.:.B ",
"p 9.2.n.5.i.OX(...l.Z i.*.m w.b d f d ..` l.`.>.@.*.i.d.N :.n.x.'.g.!.!.'.!...9.A.q.m 5.8.r.T.a.J.d.d.P.p.q.j.n Z N.] A H.G.:.Z ",
"I I W Q V q.A.i.] E A N.E $ V V V h.i 1.s C >.Z @.z A 7.#.@.i.i.N.].}.(.l.(.x.M q.q.b :.w.7.A.4.d.L.e.U.e.5.#.e.*.5.z *.5.F.q.B.",
"E = f s d T p q.G.u.Z Z z i d 6 :.:.z 9.b q.M.Z q.l 5 w B Z q.S.u.Z x.].Q.X.x.Z N.I.N.*.A 5.9.@.7.A.7.$.4.*.B.p.@.#.#.7.A.B.L.d.",
"* 6 S / = T i _.W B.#.5.m i d # q.*.A *.V b W h.h.z q T ^ j.z 5.z p d ) ) X.) 9.A 5.s.i.s.B.&.>.E ] 7.N #.W q.p.e.p.,.4.a.L.i.w.",
"y = H k.- a f {.a *.&.#.z b W d z.I I f *.4 V z b V E !.f.:.i i V n Z 6 ! X.) ) W *.*.6.8.S.S.#.j.*.Z A { R N.u.e.a.a.e.t.d.B.7.",
"= . E.l.- I f f T h.q.N z ^ y 6 8 % = f 4 i ^ { f f ^ ^ h.-.&.@.@.Z q 3 f ! ) ! f.V Z A *.#.$.N.S.5.p { W.x.9.Z.-.r.Y.L.y.p.7.i.",
"o % W.{ y I = > > u W z Z R d G y = = X $ R ).).f.R R E -.$.B.N.5 2 q l { f.! ! l.k.{ C m M A #.4.A Z x.!.!.h.C.Z Z N y.d.L.d.D.",
"@ - &Xl.K 8 = , ! y f p 1.{ I > K P > @ ) ].|.{.^ d y f *.u.#.*.z l T ) w.A.9.R ! )  .l.[ f.g.f.A #.W l.l. .9.S.=.M.v *.$.L.d.r.",
"$ , XX].g.s @ . s ^ T f k.W.j K X.G f f !...|  .:.l p E T E W Z c T ) ^ 7.8.8.*.f.k.l.l.l.l.g.x. .T  .) ! k.(.S.S.I.b b 3.i.L.L.",
"# Q '.(.g.R D < J ^ F.W X.l.[ ) ~ b W E R !  . . .Z 7 p b b z q z ! ! ^ G.w.i.8.9.g.l.l.A.OXF. .{ | W.l.) ) l.G.G.q.b b V W w.d.",
"y k.XX(.).]. .X.) v.0.' C x.x.N.q.;.W Z p Q [  .[ f.T N.E U b q ^ )  . .q.7.s.8.3.x. .f.w.S.N.h.f.l.k. .X. .! { u.u.e.S.&.d 5.8.",
"i f.|.l.).].}.l.f.V K ! C l.j.q.5.*.>.&.p ! P [ ! [ j.q.W :.i i ! ! ! { W S.S.4.3.9.g. .h.s.w.5.:.X.{  .g.k.X.k.f.q.*.7.*.5.*.i.",
"b T |.l.!.l.l.n.f.T D T j 9.w.>.q.w.h.:.z k.^ ) | { *.w.W E q b X.l. .g.f.7.H.#.#.W  .b.!.9.5.*.f.g.g.l.l.Q.g.X. .k.l.*.@.*.-.B ",
"z g ].g.b.l.l.g.{ W ^ C.q.u.u.i.A.Z.F.^ b k.W.k. .f.q.*.w.V i R ! ) Q.!.x.f.q.3.N 9.b. .g.g.j.(.!.g.l. .[ [  .g.k.W.g. .g.j.3.i.",
"p T '.g.n.g.l.x.l._.h.A Z N.q.u.-.*.*.w.b ! k.k.k.Q T z.:.Z b l.!  .x.n.n.!.j.q.A g.n.l.....g.(.).].W.g. .g.l.W.l.g.k.g.! (.S.4.",
"V p x.! !.g.l.x.g.f.T V G.A w.7.&.E Z A V ! | ! ! f f T *.b T W.! 6.s.C.!.n.n.(.n.!.b.b.l.~.(.!.!.[ l.l.g.l.l.g.l.l. .Q.].XXw.d.",
"9.I Q.g. .[ g.W.! R 9.*.-.u.7.m c m i w Z ) ^ P R f.E 4 T p T k.I j.s.H.C.^ 0.x.l.l.n.x.n.l.x.l.^ {  .g.g. . .{ ^ X.Q.g.g..X0.4.",
"$ T Q.g.n.{ g.l.^. . .T W 7.N m V  .^ T ^ !  .g. .^ W d $ y ^ k.K y 5.H.U i 5.i.G.w./.W 5.q.G.*.q.j.R ) ! R  .{ x.(.(.Q.g.|.g.8.",
"= R T { l.{ { l.l.f.E 9.*.u.*.9.9.5.j.R  .W.k.W.g.x.g.b $ y ! !.!.D y A Z.Z w.N.5.A.N.>.:.A w.q.Z 5.i T T R x.j.j.q.w.(.l.g.b.w.",
"& < a  . .x.l.g.l.h.:.9.i.I.u.5.5.q.5.] g.l.g.].).).!.n. .) {  .) Q $ *.Z z i.s.S.s.w._.E S.z q.E E $ T /.6 W q.I.u.A 0.!.}.b.q.",
"s & G !.l.{ g.g.x.q.j.C.q.s.B.$.5.q.<.5.9.R f.(.|.}.!. . . .k.! K d # A w.i.*.B S.A.u.*.A W *.>.q.:.b #.N.# g w.r.S.O.t { '.A.M.",
"J D k. .g.R f. .f.;.V ] N.A.p.4.I.S.p.&.*.*.T l.g.{ { w.z q.Q ^ *.i v W *.q.V w.5.5.3.B A z Z b *.5.&.&.:.= y 9.7.r.i.r C j.S.B.",
"L k.XX..^ V Z E 9.q.M.E 9.N.i.7.$.L.$.q.q.N.U f R ! { :.2.A 9.A -.&.@.F.U y u A.q.5.n.l.f.n.!.x.5.q.5.q l b y E m s.S.N C w.i.B.",
"^  ..Xg.f.A n m Z N.q.Z V C.U p z i.K.&.*.*.*.&.b ! f.*.5.w q.5.u.7.l B 7.n n 5.5.j.n.l.].x.{ A -.A.A m W R b W Z 8.G.q.C (.w.A.",
"R 9.'.(.h.v i d ^ 5.5.I.M.(.V A 7.#.N.*.&.n #.:.7 V { #.*.*.&.Z N.:.Z N.l q l #.i.9.(.R b.Q.j.-.M.m *.V ! R y i A q.q.7.*.].9.Z ",
"V T ~ E V d f f.x.Z 5.W j.F.W ~ &.=.q.S.G.u.I.Z.;.;.x.S.u.i.;.E F.:.E l m Z W *.5.N.x.!.}.f.] G.M.n z 9.C.9.E A N 7.Z.*.9.g.s s ",
"W b E p V b E Z V p s.N.q.*.h.b q.-.q.*.N.7.u.7.@.~ ' *.m #.A m q E b q V ' R q.C.N.A.:./.b V q.w.&.5 W *.V C Z @.3.P.*.V T 1 , ",
"&.v 6 ~ V b Z z E :.V z B 7.w.q.h.c h.p V E i V @.b Z &.A 7.O.r 2 j u s , , j ^ 9.m *.b b W *.7.w.m p K z E T m #.3.s.S.#.B > & ",
"z Z h.I U b z W z V E z z w m Z n A z b q w q b G.q.Z M.q #.#.*.2 u s h K R j 0.q.b 9.V W 5.8.7.w.5.w.w.N.j.W V A q.w 7.7.#.A 9.",
".X|.1.2.2.>.Z q.:.*.5.q.^ :.j.F.C.h.:.^ I f V y p *.A m 9.h.N 7.n n E ^ x.x.f 9.9.E :.1.I b 7.I.G.*.w.w.w.9.U b C E m m 7.q.j.|.",
"&X&X=X[.S.OX*.M.b R 9.q.1.'.x.}..X=X&X}.}.XX|..X&X&X'.f./.h.*.A *.5.N.j.^ { ! W `.w.:.E :.E E *.-.>.&.A i.F.:.I E b V f.{.{.*X.X",
"!.!.l.l.w.G.*.q.z 9.W 9.9.j.F.{ g.g.{ ..'.b.|.XX].n.n.[ b.g.{ V w.Z.E *.Z T j : g N.S.:.I V 9 p A W C j.i.OXC.b :.i b W 4.r.B._.",
"n.x.l.n.g.5.*.B -.2.f 9.5.w.N.9.g.[ g.k.Q.^.^.g.g.Q.x.{ { [ { V Z F.n z V ^ T j k w.q.h.~ :.q ~ l.b.l.l.j.C.&.:.5.5.*.:.q i.I.U.",
"l.g.l.W.l.{ 5.Z V T T W w.q.9.[.{ x.X. .) ^  .X.R L R g.g.!...b A &.E i :.j.E 9.E A.j.T A q.b x.n.!.b.n.N.F._.;.4 b W V 6 B D.S.",
"R Z n R ^ f.9.i Z E T V A q.V 0.:.b.c. .| R ) k.X. .L [ [ '.{ E *.-.Z p V 9.C.W A 7.N.&.Z N.q.1.!.!.!.!.n.q.w.:.6 y y z j V w.4.",
"E V b j.W :.V U p 9.6 f W N.:.V T ..c.} g.! R ) X.X.) [ R !...Z 8.7.z b p z.V j.#.i.q.A V N.j.1.!.l.n.n.n.c.0.*.i @ O 9 u ; 9 B ",
"i :.b ! T *.Z w.E &.d ~ 9.w.G.q.p ' } } c.{ R R L [ n.{ { l...9.*.w.@.W T :.f F.n #.7.N V j.5.oXQ l.n.(.n.g.g.! V s G ! L h u j ",
"W *.b T W w.B.&.Z E U 9.:.j.w.s.A c.c.' g.0.n.g.c.v.c.c.n.g.g.g A.j.9.9.] V T N.N.V #.Z ..j *.i.W x.l.!.n.'.[ { ..!... . .| L K ",
"w.9.A b W A G.M.M.>.9.h.q.6.q.A.A 9.c.m.m.n.n.:.E E V R K { [ u `.W 9.9.T  .;.A ^ i q Z  .W A z 5.'.!.n.!.g.{ ' {  .b.[ ! ! K V ",
"w.Z 6 6 w.*.F.N.Z j.:.W R j.F.q.*.5.} ..b.g.s.r.i.*.z :.6 j [ C V V j ] } m.A.N.U E 4 f W p B z 9.}.n.b.!.{ ) f j R [ ) K R T j ",
"W E f I b V G.Z V ] 9.9.:.! 9.q.*.E g.{ ..c.B.#.7.>.&.#.-.*.W m V f b i V V 0 6.q.T 6 ~ Y b 5.z l.!.x.v.j.y a f T s ! ) | ^ y W ",
"*.9.b y V E E b ^ f V -.E f C E E E I 9 W 6.I.<.#.:.p 8.S.w.i V *.p 9 + 9 b z 6.A.N.q.h.b *.&.w x.(.x.y T f d p y u h ! ! ^ E >.",
"M.n b 1.f f 9.2.y f j 9.E b W *.q.&.i i 7 z s.B.M.U h.w.q.q.b b m z f I j R Z w.w.7.i.:.6 E n z f.! G a s I p b $ i [ K j.:.:.j.",
"7.u.q.I y $ i z.S G a a E ;.:.E p T I f p p w.j.F.G.w.j.F.5.7.u.7.p W l.k. .A.8.S.7.7.5.d 6 9 z x.g.Q G > f p j.b p u C W f.! { ",
"Z A.&.p d i T :.1.8 * d E 9.x.~ T b p f V 9.9.l.:.w.N.W V 5.7.*.#.m ] [  .{ I.I.u.a.d.oX*.d # j g.l.T j ! I V 9.p i I 6 b ~ a T ",
"T E q.Z T f.g.! b d f T I ^ f.! f I p C.V.2.h.A T ~ >.z q.q.A.I.=.c h.R ..^ w.i.S.u.m N.u.l 6 Q x. .^ a j T V d b q.M.Z E :.V E ",
"T 5.q.A f.!.n.b.l.k. .{ R :.G j E h.b V h.M.M.&.*.9.u.B.=.N.i.A.-.c C !  .[ *.B D.F.C.q.i.&.^ L l.b.g.F R G V E E w.#.V b z 5.m ",
"*.N.#.z W l.!.!.(.b.n.!.!.j.j.W Z *.*.i 9.>.N.@.N 7.7.s.u.i.4.a.B.N 9.].n.g.g.*.i.L.Z.-.i.5.f.{ l.n.n.1.E E *.z Z A *.i 6 p i p ",
"p p Z Z f.l.].n.l.x.g. .{ j.N.C.N.*.q.U b W b 2.<.p.K.=.B.e.d.#.q.@.h.....b.g.{ 5.i.S.a.-.&.] g.x.n.l.f.^ ^ h.h.B.I.u.W d d b p ",
"V Z :.g.(.g.l.n.!.n...{ l...q.A.*.q.W :.>.&.n @.=.e.#.*.7.M.-.7 &.@.:.! l.}.x.g.F.L.a.e.q.*.W x.l.n.(.q.2.^ h.j.w.u.-.&.U y $ 9 ",
"V *.j.n.n.n.b.g.b.n.g.l.n.g.{ A *.G.M.*.*.&.l :.Z p.@.@.>.>.h.b &.z :.b.n.n._.&.-.$.e.&.Z &.u.G.u.u.N.w.C.9.j.z.:.q.q.&.V b d y ",
"&.:.N.9.g.b.n.l.x.b.l.g.x.l.{ ^ E V >.&.>.z E b &.-.n &.u.M.N.&.>.l f.n.].m.N.q.Z -.e.-.>.E Z a.a.a.N.*.h.G V F.j.w.h.:.E E 6 y ",
">.N.h.W g.l.l.n.g.l.!.l.g.l.{  .R ~ n @.e A U b E z U U z 7.N.Z i.c 9...b.v.i.7.=.=.=.e.u.=.N.u.B.I.`.:.G a - s ^ j.j.9.q.T W >.",
"N.W ^ E V l.g. .! ! ) X.X.) [ g.I E E A Z q.n U ;.I U n >.@.*.&.S.@.:.g.n.l.F.i.$.@.u.O.e.-.u.K.-.S.u.q.T D S 1.T f V q.*.u W 5.",
"E ~ H U f  .l.g.g.^ !  .:.2.~ T T d E E b E 9.M.n >.v l >.=.>.p z #.Z g.n.l.!.h.O.e r x N B.O.S.N.@.7.h.W G G ) D u j g W d j _ ",
"E 2.b d I !.R *.*.Z m *.&.*.&.:.;.y E &.n Z j.q.E n b &.p.u.>.7 4 Z h.l.g...n.x.x.f.9.f.W q.z u.#.#.W (.l.l.Q Q s y k.x.{ f d f ",
"&.:.>.7 b x.W *.i v 6 d b V E &.*.7 6 y z *.5.>.n l q q.M.M.i 6 6 6 1.l...g.!.g. ...b.9.z h.n S.M.u.q.{ [ [  ., , s !.(.l.T a y ",
"Z n >.v ^ :.M.2.v E E n M.i :.oXM.:.U I F y h.9.m i E W j.y d 3 6 y b x.Q.l.[.F.Z._.&.@X%.>.:.~ C.Z 9.N.(.(.}.].W.Q.Q.|.}.'.Q - ",
"b i q.&.u.7.@.u.v n N.N.&.d a V C.V.z.a T 6 9.N.9.f y V y $ v 4 = # :.6 y p 5.A i.S.u.N.&.N.q.:.j.E 5.G.N.W { ^ / :.W z.z.f.R R ",
"4 4 i C.z #.B.=.&.4 b l i I = = 1.^ ( = T U z N.b 4 i v = O 6 # X     4 $ @ y b z =.B q.>.z U Z 9.:.&.5.M.E E :.f d b :.b E 4 9 "
};
