/* XPM */
static char *_d355a3352d34f6a813a63053c9238d521NiZrallmhYdpx8[] = {
/* columns rows colors chars-per-pixel */
"64 64 217 2 ",
"   c #050101",
".  c #0B0402",
"X  c #0F0806",
"o  c #0E0A08",
"O  c #110603",
"+  c #130906",
"@  c #140C0A",
"#  c #1A0E09",
"$  c #1C120D",
"%  c #15110C",
"&  c #080F12",
"*  c #0E1216",
"=  c #161311",
"-  c #1B1511",
";  c #1D1A15",
":  c #1E1A1A",
">  c #22130D",
",  c #2A180F",
"<  c #231611",
"1  c #241B15",
"2  c #2B1D15",
"3  c #231E19",
"4  c #2C1F18",
"5  c #321E14",
"6  c #381E11",
"7  c #24221D",
"8  c #2C221B",
"9  c #2D261C",
"0  c #342116",
"q  c #3A2417",
"w  c #34231B",
"e  c #3B261B",
"r  c #3D291E",
"t  c #36291F",
"y  c #2B2622",
"u  c #2E2A23",
"i  c #282D2F",
"p  c #342A24",
"a  c #3C2B22",
"s  c #342E2A",
"d  c #3A2F2A",
"f  c #362721",
"g  c #3F3026",
"h  c #36342A",
"j  c #3C322B",
"k  c #3D3A2E",
"l  c #333226",
"z  c #292F31",
"x  c #272D30",
"c  c #2D3031",
"v  c #3D3632",
"b  c #3D3B33",
"n  c #41251A",
"m  c #432B1D",
"M  c #492D1E",
"N  c #422D22",
"B  c #492D20",
"V  c #443125",
"C  c #4B3225",
"Z  c #44342B",
"A  c #4B362A",
"S  c #44392E",
"D  c #4C392D",
"F  c #533626",
"G  c #5C3927",
"H  c #533729",
"J  c #533A2C",
"K  c #5B3C2B",
"L  c #573727",
"P  c #443C33",
"I  c #4C3D33",
"U  c #443E39",
"Y  c #493E38",
"T  c #433731",
"R  c #533E32",
"E  c #5A3F31",
"W  c #603F2F",
"Q  c #5B412F",
"!  c #454235",
"~  c #4A4336",
"^  c #47453A",
"/  c #4B443B",
"(  c #4D4A3C",
")  c #544234",
"_  c #5B4333",
"`  c #53443B",
"'  c #5A463A",
"]  c #534D3D",
"[  c #5D4A3C",
"{  c #56503F",
"}  c #64422E",
"|  c #6B472C",
" . c #634433",
".. c #694635",
"X. c #644B3C",
"o. c #6B4C3C",
"O. c #674737",
"+. c #714D3B",
"@. c #714936",
"#. c #74503B",
"$. c #4E4C42",
"%. c #4E4641",
"&. c #544C43",
"*. c #5C4D44",
"=. c #534D49",
"-. c #5A4E49",
";. c #534741",
":. c #555243",
">. c #5B5444",
",. c #5E5846",
"<. c #55544A",
"1. c #5A554A",
"2. c #5D5A4C",
"3. c #5E5E53",
"4. c #5D5651",
"5. c #614F42",
"6. c #684F43",
"7. c #6B5244",
"8. c #625A47",
"9. c #62544B",
"0. c #645D4B",
"q. c #6C5B4B",
"w. c #665448",
"e. c #735342",
"r. c #795643",
"t. c #795948",
"y. c #635B53",
"u. c #6C5F58",
"i. c #675D54",
"p. c #66604D",
"a. c #6A624E",
"s. c #646154",
"d. c #6C6552",
"f. c #6F6954",
"g. c #666359",
"h. c #6B635C",
"j. c #6C6A5C",
"k. c #736354",
"l. c #736B55",
"z. c #73645B",
"x. c #756D5A",
"c. c #796E5A",
"v. c #76705C",
"b. c #7B735D",
"n. c #787057",
"m. c #6B6961",
"M. c #6F6760",
"N. c #726C63",
"B. c #7A6E66",
"V. c #6F7069",
"C. c #747162",
"Z. c #7D7561",
"A. c #7E7964",
"S. c #7F7A69",
"D. c #79736B",
"F. c #7B7773",
"G. c #875B46",
"H. c #836352",
"J. c #8B6A58",
"K. c #80775F",
"L. c #82795F",
"P. c #86624E",
"I. c #807761",
"U. c #837B65",
"Y. c #887F67",
"T. c #847D69",
"R. c #887F69",
"E. c #84766E",
"W. c #8F7F75",
"Q. c #888067",
"!. c #87806C",
"~. c #8A836C",
"^. c #90876F",
"/. c #90886F",
"(. c #858272",
"). c #8C8571",
"_. c #8F8974",
"`. c #898679",
"'. c #8D897A",
"]. c #908771",
"[. c #928A74",
"{. c #958D7A",
"}. c #988F77",
"|. c #97907D",
" X c #99927D",
".X c #787E81",
"XX c #7A8185",
"oX c #8C8987",
"OX c #908F82",
"+X c #959183",
"@X c #9C9582",
"#X c #9F9985",
"$X c #9F9B8C",
"%X c #999788",
"&X c #A19A86",
"*X c #A39C8A",
"=X c #A09781",
"-X c #A59F91",
";X c #A6A08E",
":X c #A9A28E",
">X c #A6A292",
",X c #AAA594",
"<X c #ACA798",
"1X c #AEA999",
"2X c #AEA996",
"3X c #B2AC9D",
"4X c #ADACA1",
"5X c #B3AEA2",
"6X c #B6B1A3",
"7X c #B9B4A4",
"8X c #BBB6A9",
"9X c #BFBBAD",
"0X c #B8B5AA",
"qX c #BEBBB0",
"wX c #C2BEB3",
"eX c #C0BBA9",
"rX c #C7C3B9",
/* pixels */
"' =./ 1.z.N.z.0.0.y.y.&.` D ) ` &.&.] ` ^ / *.P U %.` p ) k.5.I ' i.z.>.&.I Z Z J [ ) A J E w.y.F.F.1.i.D.u.z.5.z.X.*.[ ) 9./ p ",
"Y .Xx 8 a N V N A D I S V C V a N S j T v P S = s S I 8 E A C m A V D a p r r P ) g.S p a ) ) ` ~ I / y.y.&.;.Y Z C V m / XXc $ ",
"j x & 1 N e 0 q r q a e q r 6 2 w N a S j p 8 7 P _ J e C 5 5 r 0 N V r N a V g e j a 4 D j w w e a j =.$.&.&./ j V N A a z * $ ",
"C 4 2 a # . + # + O + . O O O . O + . . .   = = - $ @ . O O $ > r C V V N w $ + @ @ @ @ ; @ X X O + @ ; 8 / &.Y A D V N r 2 8 4 ",
"} m N > @ P P ; h :.2.s.2.:.:.2.:.&.y.2.~ ~ ( &.] 2.] ] ( ! ~ S r m V r w @ X u k ! ] P ! ( g.j.g.:.:.^ S A I I D V V V A N A 0 ",
"C a a . $.j.Z.x.d.0.Z.I.p.x.b.l.l.8.p.T.x.a.I.b.!.U.a.>.Z.).Z.] ~ D N w e + ^ 2.,.] a.~.[.d.d.T.%X:.y.3.^ R I A Z N D J C V C w ",
"G r e @ ( >.T.~.b.x._.~.I.I.Y.~.I.I.~.&X_.[.d.d.l.a.>.:.~. Xb.,.] S m N N # ~ >._.].Z.[.].~.I.b.U.3X$X1.3. .A r a N N r r a a 2 ",
"J r e . ~ :.~.~.b.l.l.a.@XT.l.p.~.Y.b.{.[.@Xb.a.] ! d.x.8.a.( f.>.~ L N w X ( d.~.I.U.b.{.~.d.b.I.d.( ^ 7.r.V e N N w r N m r 4 ",
"C w 2 O :.x.{.R.x.b.x.b.,.8.~.x.U.b.] b.~.T.d.:.b.U.>X8X~./.|.&X'.] H N e . ~ ,.,.P 2.0.~.{.*Xb.x.~ h D o.N r r r N a N r m r 2 ",
"H 0 0 X ( ).U.a.b.S.~.!.Z.l.U.b.8.! :.A.[.0.Z.{.|.#X;X[.0X X[.b.p.:.C N 4   :.f.,.~ 0.v.x.I.l.,.] 1.X.+.N a a r a w a r N N a 2 ",
"V 0 w X 1.Z.@XT.x.*X{.d.b.A.b._.!.{.@Xl.( 8.0.].b.0.v.b.A.@XT.U.x.l  .A 4 . 2._.=X!. XZ.,.d.|.C.:.7.G.m e a N w + % 1 0 a N r 2 ",
"J 8 2 X m.{.U.x.~._.6X<Xb.l.x.f.U.). X&X,X`.U.3X5XZ.~.l.b.<X;X XZ.&.J a 5 . 2.U.x.~.{.a.U.I.!.g.7...q 2 5 r w   ; :.$.S V a e 0 ",
"A 4 a X ] l.! u :.~._.*X X1X_.Z.U.{.Z.@X6X[. X,X X*X_.I.T.T.T.~.n.g.V N w + :.( :.8.l.~.!.8.( I A 5 e q N w . ; k ! ! P J C N w ",
"_ A N . 1.Z.Q.Z.x.] b._.b.U.@X~.a.,.8.,.0.Z.[.T.l.~.@X@X|._.b.a.f.( C C V @ ! 0.I.x.*X~.f.:.D e.C N q r 5   o ! :.l.:.( } H V 4 ",
"_ Z r @ 2.I.].6X,.( p 8.~.&X0.] ~.3X@Xa.l.l.Z.b.~.{ d.U.{.<X~.A.n.&.O.J a @ ! x.|.7XZ.l.( [ e.H N Z a <   1 ] p.|.:XS.] W A a 2 ",
"J N 2 . &.b.b.U.b.I.b.b.v.p.x.T.[.@X,X~.~.U.Z.x.~.l.b.d.l.x.d.~.x.2.C m 0 . ( ,.8X_.>.7 ' o.m r a N w   ; :.A.b.~.~.,.k e a a 2 ",
"J a 2 X &.f.b.b.~.I.0.,.a.l.I.T.! ,.~.[.@Xd.>.d.@X&X{.@Xv.l.b.~.l.^ C A N @ ( d.).:.l o.r.N e e a 0   ; 0.x.l.~.~.{.f.~ .. .V w ",
"r 4 2 + ^ 8.p. X^.8.x.c.a.d.a.Z.U.U.@X*XU.Z.v.x.v.U.{.&.0.a.d.Z.s.( m A a # k &.&.( q.H.N m N a w . @ :.(.).Z._.~./.l.>. .C N 4 ",
"A w w + >.0.[.U.l.].[._.R.K.x.[.~.U.f.T.~.~.U.[.f.x.:.b.0.d.U.0.0.! B a 2 $ s h 7 [ H.V V V V w . ; ! ( ,.f.U.x.a.! :.$. .C m 1 ",
"E A S X 2._. X@X X~.{.~.l.8.0.U.Z.>XZ.] >.&.c.0.v.x.:.l.a.b.~.!.~.2.' A N 0 V A  .e.Z w r r q . - ] b.( Z.|.U.v.>.U.l.:.K N N 4 ",
"A Z 8   2._.T.|.].Z.T.Z.x.8.8.f.{.#X#XZ.:.l.x.l.U.U.l.l.b.@X Xv.Z.:.D I Z f D V C A N V a w . ; :.] b.*X~.*X&X X#X7X'.1.L r a 8 ",
"A d 8   :.2.U.a.U.{.{.@Xl.0.U.U.~.>X|. X~.x.{.v.~ 8.p.l.b.v.x.v.d.( R ' Z p Z V V C N V 8 . 1 ~ d.d.d.].R.U.;X].U.*X%X:._ V N 2 ",
"_ Z Z X 2.0.x.l.8.x.b.I.{.x.[.{.U.d.d.I.~.@X@X%Xl.I.l.).0.x.b.K.a.k [ R Z Z Z V V A N 0 . % 7 ( { ~.2.( x.,.[.].~.3X!.1.) Z V 9 ",
") V I @ ] d.b.l.^.{.U.~.[.@X{. Xx.,.x.v.Z.T._._.,X@Xb.{.).I.@X_._.1.[ ` S S Z Z A m 0 . 1 ( $X1X,Xb.U.d.d.] 8.l.,.d.d.>._ A a w ",
"o.m Z @ :.x.@X<X[.[.b.U.~.U._.T.b.b.T.l.a.:.I.l.b.b.Z.~.b.U.] U.'.&.o._ A S Z A C e . 3 j x.>XwX{.U.U.U.!.U.l.] ~ ! 1.! X.N N a ",
"C N Z @ >.l. X@X X~.x.f.x.v.~.b.d.U.T._.A.U.b.l.[.{.T.I.*X|.~.b.~ I t.E V p p a 0 . 3 g.'.Z.v.A.].Z.@X*X@X[.~.a.d.v.j.$.o.C V t ",
"C B w . 0.l.0.l.U.v.Z.l.~.b.:.,.b.l.>.] b.~. XT.T.T.~.8X|.~.,Xj.b O.o.m m a Z w   - >.x.3X,Xb.p.!.U.T.{.1XU.b.U.v.]._.s.@.M N w ",
" .E a O g.Z._.{.b.v.).R.Y.T.l.b.b.d.b.I.T.~.T.T.d.] 0.l.Z.x.2.:.7.J.J m m N 2   3 &.0.,X Xv.I.,Xx.{.[.~.~.] ] U. X@X$X] K 5 N w ",
"F N m . 3.A.,X~.{.].Z.a.a.x.T.T.!.l.T.~.[.I.U.l.8.b.~.l.d.d.( X...C N V m w   3 1.A.*X&X).Z.9X;Xb.T.#Xl.U.!.b.l._.&XZ.( B a V 5 ",
"m V a X ( a.[.[.~.@Xl.x.U.@X*X,X] 0.Z.{.[.{.T.T.U.I.!.!.s.1.o.G.n N H Z 0 . ; j.).&X&XU.[.T.@X*X&X{.:.8.x.@XU.l.x.A.U.2.K C m 0 ",
"E J e X 2.a.U._.6X~.a.~. X X XT.b.c.~.[.T.b.].].@X].{.0.$.7.P.H w V C 0 . 3 s.0.d.I.b.l.] d.l.] d.x.{.U.] ~ c.Z.Z.Z.f.2.+.J J e ",
"D q > . 2.!. XU.Z.].@X_. Xd._. X!.8.{.U.~.U.Z.*X@X_.C.s.` #.H t 8 N 0   3 ~ >.d.v.Z.A.].U.S ] T.l.x.U.*X0X#Xf.T. XT.f.s.K C C 8 ",
"G A n # :.@X@X~.b.b.@X_.%X:.x.8X3XT. X[.{.0.~.*X@X`.$.X.o.M e r m C . 3 2.T.U.=X@X[.v.~.].6X|.&X*X@X>.>.{. X_.*X{.[.f.>.G M N 2 ",
"F q 6 . 2.!.l.U.b.b.).[.~._.*X&X X{.@X#X|.U.~.~.x.<.) o.J m m m , . - 2.'._.d.U.].I.l.d.a.l.T.[.~._. Xx.!.=X@X~.~.~.d.b ..m r 2 ",
"C q 6   N.{.|.b._.{._.{.#X*X~.a.a.b.U.b.v.Z.l.:.~ ' o.J C m N 0   3 g.A.@X[.T.0.x.a.v._.{.b.d.U.A.l.d.l.l.{.*XU.0.l.T.y.L q m < ",
"C n q   >.U.[.*XrXwX X{.{.>X).l.l.8.U.x.Z.|.p.( 5.X.N A N r w   ; 1.Z.{.&X*XT.l.d.U.Z.].>X].T.#X~.8.,.T.v.~. X#X_.~.0.( _ N N < ",
"H r w . 2.A.].~._._.[.1X<X@Xl.I.Z.~.l.|. X0XV.' r.C a a a 0 X 3 :.v.{.|.@X@Xb.l.b._.U.I.b.T.{.U.l.Z.U.x.U.Z.].[.6XrXOX2.J N N 5 ",
"J Z 4   j._. XL.8._.*X1X,X{.@X XU.d.!.Z.'.m.[  .e w r r 0 > 3 ( d.I.~.[.;X~.b.Y.[.*X~.0.:.a.x._.l.U.U.d.U.Z.d.b.b.I.0.P C V r 1 ",
"R S e + 2.~.2XT.U._. X@Xb.0.l.6X8X@XT.d.( t.r.n r e e r 0 @ 7 0.v.b.Z.b.x.d.@XU.b.l.a.U.~.~.~.@XU.#X_.U.8.S d.:.>.b.x.&.m N w 1 ",
"J V 5 . :.!.~.I.&X@X@X#X[._.{.[.l.~.S.( [ e.N r N r r V a . :.d.].~.b.b.9 ; T.&Xc.~.~.@X_._.{.U.I.).[.@X8X{.{.~.b.U.a.:._ A N 8 ",
"_ V w . 2.l.Z.v.~.1X&XrX@X[.@X*Xx.d.2.7.+.C q 5 5 w w m 0 . &.T.{.3Xb.l.l.Z.].@XU._.|.U.~.-Xv.b.@X{.I.|.b.!.@X&X[._.A.2.F C N 8 ",
"D e w . 1.f.[.1X*X,X X_.Z.I.8.l.,.h R ..M n q 0 e e e C q   y.U.*X&XU.Z.T. X@X@X_.~.~.~.b.I.T.b.[.Z.8.l.U.~.~.].~.l.Z.s.L N a 4 ",
"A w 5 . ! ).rX3X_.|.@X@X~.[.b.p.; Z _ C r n r n m e N N 0 . s.A.{.I.U.[.v.[.1X8Xd.~.~._.U.~.{.&XZ. X~.T.Z.a.b.I.~.v.Z.j.J N r 8 ",
"C a w   >.{.0X].[.{.I.U.*Xb.d.2.` P.H L n N r 4 0 w w a w . &.l.U.Z.~.!.~.l.~.b.8.>._.6X*XU. X{.Z.Z.&X@X0.a.8.0.l.U.Z.g.H r V 8 ",
"F w 0 . >.x.*X_.*X>X~. X,Xl.$.5.o.A V C m 2 . X $ < e F e   ! d.v.].U.U.T.@X[.~.{.~.U.~.,X*X{.0.x.d.T.~.{.,XI.U.U.U.U.y.H e N 1 ",
"N a w . g.l.] U.@X9X8X_.+X:.[ e.A N C C 5 . ; <.<.j C N 4 . h U.x.b.T.T.{.@X~.~.*X_.@X_.[.~.U.b.x.I.a.p.[.|._.U.).Z.Z.2.C N V 1 ",
"C C a . 2.$XU.a.*X3XwXT.k ) t.E N a r 5   3 m.1.( &.C r e . 2.l.&XZ.x. X_.@X X).{.~.~.).!.T.[.U.~.b.~.I.b.b.Z.l.x.T.l.h C N A 1 ",
"C A a . C.~.*X@X X@XOX3.5.7.C A V N 5   7 s.S.4X(.~ C V a @ g.!. X2X>X,X{.~.b.b.a.U.,X~.].v.U._.~.T.Z.l.c.U.b.U.U.|._.:.7.[ N 4 ",
"J D Z . s.A.I.U.a.s.( R X.A A V r 2   3 N.A.b.eX`.1.L A w @ D.<X,X~._.{.].{.~._.T.!._.v.,._.>XZ.~.[.~.l.a.0.,.b._.{.l.:.X.I N p ",
"_ A S o ! ,.x.I.v.( ' O.F A V V 5   - g.).].]. X4Xy.O.D w = ! ] a.b. X~.T.~.@X>XT.*X~.].~.*X*X{.v.Z.,.,.l.b.n.d.b.x.Z.:.L Y ~ 8 ",
">.V T @ ! g.T.x.1.7.o.m N Z N r . ; ( j.].@X:X<X+Xy.H D e @ :.T.A.l._.@XU.~.~.@X~.@XU.[.,X[.~.T.~.R.l. X*X X@XU.L.<XT.&.Q I Z 8 ",
"*.A Z 1 ( <.( ^ q.H.a V V N e . = &.p.p.].@XT.=X(.2.K J m + g.+X,X{.Z.>.l.b.U.b.U.v.~.[.{.v.T.T.U.{.,XT. XU.~._.#X|.A.1.| J V p ",
" .R Z 2 S b ! q.H.R 0 N V a . % ] f.b.[.|.~.a.Y.l.! +.H 0 . >.!.U.~.x.U.I.l.Z.{.~. XU.I.[. XU.!.}.R.v.T.{.Z.[.~.].x.b.y.K m Z w ",
"F C V V J E o.r.D A a S p . o ( a.U.U.U.{.~.{.U.b.&...5 2 O ^ ( x.].U.~.U.l.U.x.~ Z.#X{.T.Z.b.{.~.T.&XT.[.&X).b.U.U.x.1.L r 0 2 ",
"L V V A N J _ I V A r w X 7 0.a.~.~.:X X~.#XT.~.).1.} q V + >.Z. X_.~.v.n.[.*Xx.] v._.].b.|.T.d.I.b.R.@X[.v.a.I.U.~.).1.O.r e e ",
"L 2 r N Z A V a Z I w @ 3 :.a.x.v.I.,X3X~.&X#X:XA.:.G m 5 + ~ l.T.&XT.d.0.a.U.[.@X~.[._.T.|.3X@X,X_.T.,X~.l.l.I.U.U.f.2.} 0 w 6 ",
"M 3 V D V V V Z I I o 3 $.0.l.~.].[.&X,X3X{.~.<X!.:. .B 0 > ( x. Xx.U.U.l.b.x._.@X~.{.&X X~.v.K.~.[.x.:.U.~.l.a.|.~.A.1...q L N ",
"A r F H N e V D *.&.= ~ j.Z.}.!.{ x.U.9X*X{.].~.(.(  .N w > P 2.`.*X_.b. X~.I.Q.{.L.U.b.*XqX@X].~.~.~.l.l. X{.v.&X{.d.$._ m C r ",
"K N M V V A A I -.^ : h ( g.p.u S >.0.l.).v.T.p.1.( D a 4 r 5 ^ j.2.C.!.{.%X%X!.,.d.>.x.d.a.A.T.l.{.Z.{.Z.Z.!.).S.x.:.~ @.H N 1 ",
"C V V Z A J A R I / U <.l 9 l k h $.! ] <.( ( 1.P X.) j A A V A I :.1.( :.&.~ k ( ~ ! >.~ 2.1.:.0.m.1.:.2.2.>.2.>.P P q.' a V w ",
") &.Y ] ' -.Y &.P g.;.h.E.z.oXoXh.7.o.J o.[ X._ ' ) I / &.<.=.R 6.*.J.J.7.9.1.4.-.P Y ^ *.k.9.9.>._ ) [ q.z.M.z.i.i.D.W.&.1.U u ",
"1..Xz v 1.y./ y.` y.Y / <.y.N.1.&.5.D Z J [ D A V S ~ *./ q.i.` *.&.c.q.&.I / %.b v P U ;.` I S I D S j A ` &.1.&./ g.u.&..Xc : ",
"P i & v y.g.h.h.y./ / *.&.&.` P ` Y r S S Y S S S Y / <.*.*.` R D I / &.&.P P P k S T P Y Z S d s / / Y Y / / 9.y.y.B.y./ i * 1 ",
"j 7 y p v P P j b y j g f u 9 9 p u 8 p y y u y u s p s j k P T p P P d s u 7 4 w 1 p a 8 8 7 p U / v U P d v S b j P T s 7 y u "
};
