/* XPM */
static char *_67c741ef7004c6a91e38d53e7367b1eCtO0TKEume5fVpwH[] = {
/* columns rows colors chars-per-pixel */
"64 64 131 2 ",
"   c #2F271B",
".  c #31281B",
"X  c #392F22",
"o  c #413726",
"O  c #433827",
"+  c #453A29",
"@  c #4B3E2D",
"#  c #4D412F",
"$  c #524532",
"%  c #574A35",
"&  c #594C37",
"*  c #5D4F39",
"=  c #5E503A",
"-  c #63543D",
";  c #665740",
":  c #675840",
">  c #6C5C43",
",  c #705F46",
"<  c #716147",
"1  c #756449",
"2  c #79674B",
"3  c #7C6A4E",
"4  c #7E6C51",
"5  c #816E52",
"6  c #857255",
"7  c #887657",
"8  c #867459",
"9  c #897659",
"0  c #8D7A5C",
"q  c #8F7D60",
"w  c #917E62",
"e  c #938166",
"r  c #96856A",
"t  c #98876D",
"y  c #99886E",
"u  c #9C8C73",
"i  c #9F8F78",
"p  c #9F9077",
"a  c #9F9078",
"s  c #A08F77",
"d  c #A08F78",
"f  c #A2937B",
"g  c #A59780",
"h  c #A69983",
"j  c #A99B86",
"k  c #AB9E89",
"l  c #AEA18D",
"z  c #AFA490",
"x  c #B1A593",
"c  c #B4A896",
"v  c #B7AD9C",
"b  c #B6AB9A",
"n  c #B8AD9C",
"m  c #B8AE9C",
"M  c #B8AE9D",
"N  c #B9AF9F",
"B  c #B8AE9E",
"V  c #B9B09F",
"C  c #B9AFA0",
"Z  c #B9AFA0",
"A  c #BAB0A1",
"S  c #BBB1A2",
"D  c #BBB2A3",
"F  c #BCB2A3",
"G  c #BDB3A4",
"H  c #BDB4A4",
"J  c #BDB5A5",
"K  c #BEB5A6",
"L  c #BEB6A6",
"P  c #BCB3A3",
"I  c #BFB7A8",
"U  c #C0B7A7",
"Y  c #C0B7A7",
"T  c #C0B7A9",
"R  c #C1B8A8",
"E  c #C1B8A9",
"W  c #C2B8AA",
"Q  c #C2BAAD",
"!  c #C3BBAE",
"~  c #C4BCAE",
"^  c #C5BDAF",
"/  c #C2BAAC",
"(  c #C5BDB0",
")  c #C5BEB0",
"_  c #C5BEB1",
"`  c #C5BFB1",
"'  c #C5BEB1",
"]  c #C6C0B2",
"[  c #C7C1B3",
"{  c #C7C0B3",
"}  c #C9C1B5",
"|  c #C9C2B6",
" . c #CAC2B8",
".. c #CBC3B8",
"X. c #CBC4B9",
"o. c #CCC4B9",
"O. c #CCC5BA",
"+. c #CCC5BB",
"@. c #CDC6BB",
"#. c #CDC7BD",
"$. c #CCC5BA",
"%. c #CEC8BE",
"&. c #CEC9BF",
"*. c #CFCAC0",
"=. c #D0CBC1",
"-. c #D1CCC2",
";. c #D1CCC3",
":. c #D2CDC4",
">. c #D4CEC5",
",. c #D2CDC4",
"<. c #D6D1CA",
"1. c #D6D2CB",
"2. c #D7D3CC",
"3. c #D6D2CA",
"4. c #D9D6CE",
"5. c #D9D5CE",
"6. c #DAD7D0",
"7. c #DAD7D0",
"8. c #DBD8D1",
"9. c #DCD8D2",
"0. c #DDDAD6",
"q. c #DCD9D2",
"w. c #E0DCD7",
"e. c #E0DCD7",
"r. c #E0DDD8",
"t. c #E4E2DE",
"y. c #E4E2DE",
"u. c #E5E4E1",
"i. c #E5E3E0",
"p. c #EDEEED",
"a. c #EBEBE9",
/* pixels */
"O # % * : < 1 > < < 5 5 2 5 e 6 0 e 6 1 0 7 6 1 1 < 1 5 0 w 0 r 6 6 7 w 3 > < y 6 3 3 2 6 : 3 > 5 0 e 6 3 3 7 1 5 7 < = # * $ O ",
"% > 0 r h f j j k f f j f j j k l c z j f x x j k x l f C ) =.#.[ Q A J U x c x J b x j c n Q +.J b E J ~ c x j j z x h e 3 > * ",
"; 6 b ~ ..+.A Q ..x A %.~ A -.+.%.2.8.b Q 9.p.8.+.1.E #.=.[ 5.) %.+.>.-.>.#.#.J ~ %.[ l Q A f F ) >.#.F G } E ..1.t.u...0.w.f 3 ",
"2 b J w v n x 6 0 h c w f f 6 r t 2 w : r f x n u e u j e i l A h 0 0 f x e 6 w 0 0 3 ; i f & ; u J g t 2 2 c y b c f f t Q b w ",
"5 b 6.x i > n g 6 i u 5 w 9 5 u 0 0 y 5 7 1 e h i i k r 6 y l h z 7 y f l j 0 2 3 < > * @ w 3 w 0 e 0 f h f u : @ f 3 5 f l A r ",
"t l n b ) h x f 1 - 6 1 0 q u h g r r i r 1 5 r h i k y e y i q b x f y 5 e y 3 6 6 < e , - 7 w 7 6 : 5 y e 7 0 y > & * ; f f w ",
"1 j X.f J x j u > : 2 5 3 8 0 w 0 9 e 5 > 6 9 u k x h k e 0 i 0 e f i g i < w q 9 i e t q 2 0 9 < - 6 6 3 e y u 9 0 6 5 > t f 2 ",
"- u %.A ) Q q 0 r h > > > 3 2 < & 6 1 5 h 0 w u i f f k r u w i q 6 t f k g f y t g f 0 w e i 0 5 h k h q 0 9 3 1 a r 9 u b f - ",
"u j J A =.F h c u 9 u u e 5 6 8 8 6 e r q j i 3 q w 0 y u f t 9 f e f r f f q r f 0 9 y k G w e f j j k e 9 i 2 0 t f e r l f 9 ",
"e u t.x c z k x b l j x ; > 2 6 k 0 w h w t 0 4 8 9 5 y h 7 0 r p 0 l e 3 6 w r 7 e 1 y 6 u 0 3 0 u g p g u 0 e y y t k 3 f f 6 ",
"< f c w = x u b E J l w w 1 5 1 w 0 9 e u > e w w 3 7 e w w 0 0 u w u l i u e i g u i 3 : 1 t 5 3 5 r i q i e e e w 6 0 r h i 2 ",
"1 y 5.f 0 e 0 e f f u y f r l t 0 9 g 4 1 e f f 8 r 0 a u h t 0 4 q w h x l i 0 2 w w 6 2 2 6 f e 3 7 e 0 0 e u r 5 5 0 0 x h 1 ",
"< 7 Q j e e q w f 0 f e g n k 9 r g k g p e > 0 e 3 w w 0 w 0 q 2 7 0 q f e 2 5 u u y r 0 e 0 r 7 = 6 7 0 0 u t u e 3 l f y f 1 ",
": c l f 9 8 r 0 9 u p j n l u f i x j u r < 0 u 3 r i w w r 6 4 w 7 6 0 i i r 0 r 9 9 7 e e 7 - > - g f 3 t e 0 0 f 1 0 6 t e < ",
"0 Q } f u j b ) J r 0 0 i k j l u 3 e p 2 5 t u 5 w h f h f u t y 0 u 0 0 i j g 5 f 8 0 f r 0 r 9 0 6 9 t 0 < 0 b l r 5 1 3 7 3 ",
"2 x n 6 i l Q A j r p u f x k h l a q 0 6 e 5 g 9 q f f f c f i r e 1 6 t f i e w r t e y e t r f r 5 1 3 t 5 u w e f e < 3 0 2 ",
"2 u E 0 5 l u l f : y k t n k f e j i y k F j f j y x f f k r f x t 9 9 e r 8 3 8 1 q 6 9 6 0 0 t 0 u h 0 u 6 w w g i u r u 5 > ",
"# 5 n w e h k f f u q i l l g i j l j q e A E A f i t y y u f 0 0 0 a r e 9 t 9 e e 0 > u 9 e x j r 0 2 1 6 r i i l r y h l 3 # ",
": f A 0 w f b l A a 4 r V } x u f b J c e i x x x h f u e h h f 9 e u e f e u 0 w w 6 6 2 0 7 f f h h r 2 w u j i q t y 3 l e : ",
"5 0 g < u f h a l f i i j k j l y 6 l u u r e 0 0 t i g f u f k y 0 0 e f u w f y t q y w 9 3 0 j w f t w f i u u i e k A ..h 3 ",
"0 A x y > 6 u f w 7 u u b l h i g r 3 r y g f 5 3 y u 0 r y 0 e f t r e f e r e e y f f u 3 < r h e 6 y i j j e u l J i f E r < ",
": f Q f i 0 i n A r u e t e 0 0 5 0 u y k e u u e e 0 u 5 0 i u r t < = - 0 e i e r g y e f 9 9 l k j i 6 9 s 0 i z f g e J e > ",
"e e F e u 1 e f j g e j 0 0 f u 0 4 0 r l x l b y i i j u 1 w e e e g y 9 8 1 u a f r 0 y u w 3 6 f 0 w e e f y g h u j u r u 5 ",
"d l f w 8 f f t f k k g w i f < 2 r i 0 y i j l f u 0 u k u 6 3 0 w 8 i y 2 4 f f e k w e u e q 5 6 6 9 f r 6 i h k k u f A u 3 ",
"6 k I l f e w 6 f u g p l l l g i u k f 5 1 4 y j k h r u j u f i k 8 u e u u e f z f c f f g 9 q q t 6 t 2 , r r 5 q 7 t b r 7 ",
"2 k l 2 r 6 w r e u t j f h f y u i u j h u 0 f w r t f f r 1 u i e e y h i u n J l i 0 g j j f y f n E l b u t u e r 2 6 g y 5 ",
"1 l } > 5 u w r i k l w e w f u 5 9 e t r 6 1 g t > 6 l l f r < p f e x h u p u j f h n r g n J f f x x A } ) j k k f 2 6 g * * ",
"2 j Q 0 i w q 1 k f k a 0 e u u r 2 2 > 1 : - 1 i 6 u t e e f h i 9 & 2 f - e e q j y i k j e t c u 0 i i i u i f j l t 6 c f - ",
"3 f E n Q k w r u e i n f f 6 2 t 7 1 w < 9 0 : > r w 9 2 * e i 0 6 0 0 * - & 3 7 e l 2 r k l r l t q 7 y e w u 3 > 6 t f b r ; ",
"; 0 u b b x ~ 8.[ A F x b c c } X.r 0 h x k x A J E c +.n A ..C x x E l f r f c h J k k A b c h l i r E J F F f 9 3 h k j r % $ ",
"# = 6 5 y 6 f l k 0 w f f 9 q w e 0 7 k f 1 0 e u j 6 w g t 0 w f 0 5 0 6 5 < 2 1 9 t p l f u a j k t e e r e t e 0 0 1 ; * # o ",
"o o o - > - & > 1 # > 2 $ & % $ > > * - < % & & & & < ; 1 3 : = > - # * @ @ $ % $ % = - 2 1 < - - : : & % & * & ; - $ o O X   . ",
"O # % * : < 1 > < < 5 5 2 5 e 6 0 e 6 1 0 7 6 1 1 < 1 5 0 w 0 r 6 6 7 w 3 > < y 6 3 3 2 6 : 3 > 5 0 e 6 3 3 7 1 5 7 < = # * $ O ",
"% > 0 r h f j j k f f j f j j k k c z j f x x j k x l f n ) %.#.) Q A G J x c x J b x j c n Q +.J b E J ~ c x j j z x h e 3 > * ",
"; 6 b ~ +.#.A Q } l n X.Q A %.} +.1.6.b Q 8.a.5.} >.U +.%.) 2.) #.X.-.%.=.+.%.J ! ..Q k T n f A ) >.%.A G } E ..1.y.i...0.w.f 3 ",
"2 l r.J f v A i 0 r b w v f g c 0 2 6 k i x j f i g f 5 : r y t l x u e 6 i A r 7 k 5 2 j j r t f i w t b f Q } b f f 5 f t r < ",
"6 i g 0 w 0 e , 9 f e u f u f l u t e f r u y f f 6 < 1 5 F f u k h u f 7 : 0 8 0 u f i r k q f j r x x A I I i f j f 7 9 5 0 > ",
"< u x 2 e 6 : p f f r 7 9 5 f u e t 0 u j 9 e k t u u 0 e e i f r 7 f l f w < 5 1 w b b u l k J b *.J x h k f h 6 1 9 t r j e 1 ",
"3 y J 7 q j j 4 6 7 f f 7 i g g f i r e r 0 6 5 y u i i e 6 w s y e f 5 i j e : 2 y l h f h l x >.) l c b f r j h i 5 6 6 x 0 > ",
"0 f Q e r f l f 1 w i f w l j b j 0 r e w 0 6 q 0 0 w w 5 7 7 r w 0 0 e x k j y w y x u j r x u r g u i c i w h l x f e 1 j r 2 ",
"6 h b 7 e 5 3 e 5 4 6 2 3 f c l b h f x l r 7 u w u x y 0 7 3 5 0 e t u x u g v u w e w j q e l f w w w i g 8 r 0 u l t 0 u e > ",
"1 e l 0 9 q f 3 w t 6 u r t x c k b 0 u r f t i e f h j k j w 4 i i a y r g i y l g p j e e f i k l k 3 u f l b h x f i f e r 1 ",
"> u b y 2 i t 8 i f f e u y f i x b e e f 0 i 0 r 1 i f u g r u y h u i e q A v z l r 5 w 9 f u f x l l i y b x l h p 0 6 0 7 : ",
"; r l 0 u l i i i r p t e f u r 0 x e u n k j 9 1 0 j k 8 r j x I l r e b c t l i r k g 0 e : e f k r f u j h f k n j 6 : w 0 - ",
"5 j t u a 9 y 7 i k i b c u e r r x A x x n f h f 6 f ..E E x i c x g l i u g u h e w f y y 5 6 i c b g F b } J l a f e > 0 0 < ",
"= r f 7 6 e q 6 e 0 l b w y e j E ) Q n E ) h j a t w c V k l l x A x v y u j q 0 z i 5 r e 6 > r f =.v n x l h h k b j i j 3 > ",
": u } f 6 0 e e u b j f g q u l e 2 f F G J w y l b k k k h k A e f h f f i u g u y x r 9 6 , i l y k J n i < u g h j p g f 2 2 ",
"2 i u f f y t t t e q r w 3 0 u f y f x x n w i f k i l n k f k 0 f a 2 2 5 5 y 0 i e g n } x c k l l b f t f w 2 0 w 6 a i p 1 ",
"3 e r 7 u 1 l 0 w y h j 0 e 9 f r y i u g h g 0 w f f h f G l c F y l y 9 0 : 9 a k j n 0 g x g n J x x f f f y e u y 0 5 J k 7 ",
"1 3 h 2 y 1 i r 3 8 r 6 e e 9 9 t 5 3 e l 0 f i e b k z T Q b c x y u n n j y 8 4 e z z k e f p j E l 9 6 t y t u e r i y l r 3 ",
"3 f 3 5 0 3 9 k i p j f y f w > w 0 6 e h 3 0 f t j x F x i l u u f i a y x h u b n l x x k g w f g i e 5 5 5 w e y y b l f w 5 ",
"1 6 l x r 5 w j f g j e y 9 9 u i e 7 7 r t e e r 0 i f x 0 4 i i u 0 - 6 r l n l k g l b j g g l h i f e 2 - 6 w t e j x J 6 3 ",
"0 p Q 0 9 e 4 e e 4 a e e e e r 0 f 1 5 k j k l u w u u r y 6 e i f i x g e Q k j A g r 0 e 0 k y 7 w e 0 9 0 0 2 w y t l f 6 6 ",
"7 f j 2 w l i w y e y f k n f e 4 e u e f x u f y t 5 i u i w w 0 r f x c e i k l x t 8 y 3 0 i y e y e 5 r r e e f i e 7 p 0 7 ",
"w p l a t y i q e k x t w w k i 6 j f f u x i f e 3 e 6 e q w 0 f l l h i a i 8 u e : < e 9 5 f f k l j f j f z f 6 2 3 - e 0 u ",
"6 t x u f 8 e q 5 f 0 9 e w e u p t 0 9 0 l i i q w f r u 5 6 y u f b u 6 0 8 5 e e w 1 4 6 2 q f r h y e 6 r 5 4 6 0 3 0 g 6 0 ",
"5 e h e 0 0 t 0 - 6 z f : r y f b h g i e 6 y u k i t u u 0 6 j w 0 w q 5 : > w e u k i 6 y 8 i q 0 e r e y i y 5 i g k e k 5 1 ",
"5 0 u i f y e f w 3 e u t 6 l A g i k x u 7 9 i f u 0 i i e 0 u 0 t j 9 3 6 w f 5 7 y h p y 9 0 7 e 7 e 0 q q u f f e r y j 9 > ",
"- 5 3 t j y f l l 0 5 6 u u f u r w j x u u t l A x j w g f y 0 i j E c 0 0 f u f r w f f f a i t r r f h e 0 f a j l w w g 0 $ ",
"< e J u i f j i i i t w 2 u r 9 = 0 1 h e a b J g k A k e 9 f l y f k j j y ; e i w w e 6 5 6 u f h t f l l w t r f k w 0 x 7 * ",
"2 r [ u q w j r w 0 r 5 3 r e j u 6 e 9 7 0 t u 5 g x l u u I g w x x h r j h 5 3 u r f 6 = e r 3 4 e e 0 h f i t g r r 3 f - = ",
"; 0 u b b l Q 8.} F E G E J J >.1.t 0 j b x b J J Q c #.n F ..n x c Q x h r u x j J j k J b n j x f 0 J G n A f 7 3 g k j r % $ ",
"# = 6 5 y 6 f z j 0 w g f 7 0 w e 0 7 k f 1 0 e u j 6 w g t 0 w f 0 5 0 6 5 < 2 1 9 t p z f u f j l r w e r e t e 0 0 1 ; * # o ",
"o o o - > - & > 1 # : 2 $ & % $ > > * - < % & & & & < ; 1 3 : = > - # * @ @ $ % $ % = - 2 1 < - - : : & % & * & ; - $ o O X   . "
};
